<svg width="24" height="24" viewBox="0 0 24 24" fill="none" xmlns="http://www.w3.org/2000/svg">
<path fill-rule="evenodd" clip-rule="evenodd" d="M19 2C20.6569 2 22 3.34315 22 5V19C22 20.6569 20.6569 22 19 22H5C3.34315 22 2 20.6569 2 19V5C2 3.34315 3.34315 2 5 2H19ZM19 4H5C4.44771 4 4 4.44771 4 5V19C4 19.5523 4.44771 20 5 20H19C19.5523 20 20 19.5523 20 19V5C20 4.44771 19.5523 4 19 4ZM12 7C12.5128 7 12.9355 7.38604 12.9933 7.88338L13 8L12.9999 11H16C16.5523 11 17 11.4477 17 12C17 12.5128 16.614 12.9355 16.1166 12.9933L16 13L12.9999 12.9999L13 16C13 16.5523 12.5523 17 12 17C11.4872 17 11.0645 16.614 11.0067 16.1166L11 16V12.9999L8 13C7.44771 13 7 12.5523 7 12C7 11.4872 7.38604 11.0645 7.88338 11.0067L8 11H11V8C11 7.44771 11.4477 7 12 7Z" fill="black"/>
</svg>
