<svg width="27" height="26" viewBox="0 0 33 32" fill="none" xmlns="http://www.w3.org/2000/svg">
<path d="M21.8334 28V6.66667C21.8334 5.95942 21.5524 5.28115 21.0523 4.78105C20.5522 4.28095 19.8739 4 19.1667 4H13.8334C13.1261 4 12.4478 4.28095 11.9477 4.78105C11.4476 5.28115 11.1667 5.95942 11.1667 6.66667V28M5.83335 9.33333H27.1667C28.6394 9.33333 29.8334 10.5272 29.8334 12V25.3333C29.8334 26.8061 28.6394 28 27.1667 28H5.83335C4.36059 28 3.16669 26.8061 3.16669 25.3333V12C3.16669 10.5272 4.36059 9.33333 5.83335 9.33333Z" stroke="#FFF" stroke-width="2.8" stroke-linecap="round" stroke-linejoin="round"/>
</svg>
