<svg width="24" height="24" viewBox="0 0 24 24" fill="none" xmlns="http://www.w3.org/2000/svg">
<path fill-rule="evenodd" clip-rule="evenodd" d="M12 1C18.0751 1 23 5.92487 23 12C23 18.0751 18.0751 23 12 23C10.3292 23 8.74539 22.6275 7.32711 21.961L6.66967 22.1786C4.43285 22.8954 2.86994 23.1431 1.98083 22.9215C0.931147 22.6598 0.72399 22.2019 1.35936 21.5477C1.79856 21.0244 2.16456 20.3702 2.45736 19.5852C2.69071 18.9596 2.59861 18.0846 2.18106 16.9604C1.42486 15.4695 1 13.7844 1 12C1 5.92487 5.92487 1 12 1ZM12 3C7.02944 3 3 7.02944 3 12C3 13.3125 3.27995 14.5803 3.81309 15.7417L3.96474 16.0557L4.01627 16.1573L4.05592 16.2641C4.62488 17.7959 4.76452 19.1225 4.33126 20.2841L4.18786 20.6485L4.116 20.811L4.204 20.792C4.72133 20.6735 5.3356 20.5044 6.03639 20.281L6.68182 20.068L7.44653 19.8073L8.17773 20.1509C9.36235 20.7076 10.6585 21 12 21C16.9706 21 21 16.9706 21 12C21 7.02944 16.9706 3 12 3ZM13 9V11H15C16.3333 11 16.3333 13 15 13H13V15C13 16.3333 11 16.3333 11 15V13H9C7.66667 13 7.66667 11 9 11H11V9C11 7.66667 13 7.66667 13 9Z" fill="#EDEAE1"/>
</svg>
