<svg width="26" height="26" viewBox="0 0 14 14" fill="none" xmlns="http://www.w3.org/2000/svg">
<path d="M12.642 2.26611H1.358C0.88414 2.26611 0.5 2.65025 0.5 3.12411V10.8761C0.5 11.35 0.88414 11.7341 1.358 11.7341H12.642C13.1159 11.7341 13.5 11.35 13.5 10.8761V3.12411C13.5 2.65025 13.1159 2.26611 12.642 2.26611Z" stroke="white" stroke-linecap="round" stroke-linejoin="round"/>
<path d="M9.35938 5.87939H11.3462" stroke="white" stroke-linecap="round" stroke-linejoin="round"/>
<path d="M9.35938 7.84863H11.3462" stroke="white" stroke-linecap="round" stroke-linejoin="round"/>
<path d="M3.5072 6.20769C3.5072 7.11388 4.24181 7.8485 5.148 7.8485C5.37709 7.8485 5.59521 7.80154 5.79327 7.71674C6.37866 7.46609 6.78879 6.88479 6.78879 6.20769C6.78879 5.3015 6.05419 4.56689 5.148 4.56689C4.24181 4.56689 3.5072 5.3015 3.5072 6.20769Z" stroke="white" stroke-linecap="round" stroke-linejoin="round"/>
<path d="M2.65381 9.47328C2.91453 8.97738 3.28096 8.56753 3.71787 8.28314C4.15478 7.99874 4.64748 7.84937 5.1486 7.84937C5.64973 7.84937 6.14243 7.99874 6.57934 8.28314C7.01625 8.56753 7.38268 8.97738 7.6434 9.47328" stroke="white" stroke-linecap="round" stroke-linejoin="round"/>
</svg>
