<svg width="24" height="24" viewBox="0 0 24 24" fill="none" xmlns="http://www.w3.org/2000/svg">
<path fill-rule="evenodd" clip-rule="evenodd" d="M11.9571 3.29289C12.3176 3.65338 12.3453 4.22061 12.0403 4.6129L11.9571 4.70711L5.66475 10.9999L20.25 11C20.8023 11 21.25 11.4477 21.25 12C21.25 12.5128 20.864 12.9355 20.3666 12.9933L20.25 13L5.66437 12.9998L11.9571 19.2929C12.3176 19.6534 12.3453 20.2206 12.0403 20.6129L11.9571 20.7071C11.5966 21.0676 11.0294 21.0953 10.6371 20.7903L10.5429 20.7071L2.54289 12.7071C2.18241 12.3466 2.15468 11.7794 2.4597 11.3871L2.54289 11.2929L10.5429 3.29289C10.9334 2.90237 11.5666 2.90237 11.9571 3.29289Z" fill="black"/>
</svg>
