<svg width="18" height="17" viewBox="0 0 18 17" fill="none" xmlns="http://www.w3.org/2000/svg">
<path d="M8.5 3C7.9375 3 7.46875 2.71875 7.1875 2.25C6.90625 1.8125 6.90625 1.21875 7.1875 0.75C7.46875 0.3125 7.9375 0 8.5 0C9.03125 0 9.5 0.3125 9.78125 0.75C10.0625 1.21875 10.0625 1.8125 9.78125 2.25C9.5 2.71875 9.03125 3 8.5 3ZM5.65625 3.40625L8.625 4.15625C9.21875 4.3125 9.6875 4.75 9.875 5.34375L10.5 7.34375C10.5312 7.4375 10.625 7.5 10.7188 7.5H12.25C12.6562 7.5 13 7.84375 13 8.25C13 8.6875 12.6562 9 12.25 9H10.7188C9.9375 9 9.28125 8.5 9.0625 7.78125L8.875 7.21875L8 9.84375L9 10.4062C9.5 10.6875 9.75 11.3125 9.59375 11.875L8.4375 15.5C8.3125 15.875 7.90625 16.0938 7.5 15.9688C7.125 15.8438 6.90625 15.4375 7.03125 15.0312L8.09375 11.625L5.34375 10.0625C4.59375 9.65625 4.28125 8.78125 4.53125 8L5.5625 4.9375L5.28125 4.875C5.09375 4.8125 4.875 4.8125 4.6875 4.875H4.625C4.4375 4.9375 4.25 5 4.125 5.125L2.71875 6.34375C2.40625 6.59375 1.9375 6.5625 1.65625 6.25C1.40625 5.9375 1.4375 5.46875 1.75 5.1875L3.125 4C3.46875 3.71875 3.84375 3.53125 4.25 3.4375L4.3125 3.40625C4.75 3.3125 5.21875 3.3125 5.65625 3.40625ZM7.875 5.5L7.03125 5.28125L5.96875 8.46875C5.90625 8.59375 5.96875 8.71875 6.0625 8.78125L6.65625 9.09375L7.875 5.5ZM3.8125 9.9375C4.0625 10.3438 4.40625 10.6875 4.84375 10.9375L5 11.0312L4.5625 12.2188C4.375 12.6875 3.90625 13 3.375 13H0.75C0.3125 13 0 12.6875 0 12.25C0 11.8438 0.3125 11.5 0.75 11.5H3.21875L3.8125 9.9375ZM16.5 1.5H13.5V7.03125C13.1562 6.71875 12.7188 6.5 12.25 6.5C12.1562 6.5 12.0625 6.53125 12 6.53125V1.5C12 0.6875 12.6562 0 13.5 0H16.5C17.3125 0 18 0.6875 18 1.5V14.5C18 15.3438 17.3125 16 16.5 16H13.5C12.6562 16 12 15.3438 12 14.5V10C12.0625 10 12.1562 10 12.25 10C12.7188 10 13.1562 9.8125 13.5 9.5V14.5H16.5V1.5Z" fill="black"/>
</svg>
