<svg width="12" height="12" viewBox="0 0 12 12" fill="none" xmlns="http://www.w3.org/2000/svg">
<path d="M7 1.4375V5.375H10.9375C11.4023 5.375 11.8125 5.78516 11.8125 6.25C11.8125 6.74219 11.4023 7.125 10.9375 7.125H7V11.0625C7 11.5547 6.58984 11.9375 6.125 11.9375C5.63281 11.9375 5.25 11.5547 5.25 11.0625V7.125H1.3125C0.820312 7.125 0.4375 6.74219 0.4375 6.25C0.4375 5.78516 0.820312 5.375 1.3125 5.375H5.25V1.4375C5.25 0.972656 5.63281 0.5625 6.125 0.5625C6.58984 0.5625 7 0.972656 7 1.4375Z" fill="white"/>
</svg>
