<svg width="32" height="32" viewBox="0 0 32 32" fill="none" xmlns="http://www.w3.org/2000/svg">
<path d="M16 4C16.7969 4 17.5469 4.09375 18.2969 4.23438C18.6719 4.32812 19.3281 4.51562 19.7031 5.17188C19.7969 5.35938 19.8438 5.54688 19.8906 5.73438L20.3594 7.5625C20.4062 7.79688 20.875 8.07812 21.1562 7.98438L22.9375 7.46875C23.125 7.42188 23.3125 7.375 23.5 7.375C24.25 7.375 24.7656 7.84375 25 8.125C26.0312 9.29688 26.8281 10.6562 27.3438 12.1562C27.4844 12.5312 27.625 13.1875 27.2031 13.7969C27.1094 13.9844 26.9688 14.125 26.8281 14.2656L25.5156 15.5781C25.2812 15.7656 25.2812 16.2812 25.5156 16.4688L26.8281 17.7812C26.9688 17.9219 27.1094 18.0625 27.2031 18.25C27.5781 18.8594 27.4375 19.5156 27.3438 19.8906C26.8281 21.3906 26.0312 22.75 25 23.9219C24.7656 24.2031 24.25 24.6719 23.5 24.6719C23.3125 24.6719 23.125 24.625 22.9375 24.5781L21.1562 24.0156C20.875 23.9688 20.4062 24.2031 20.3594 24.4844L19.8906 26.3125C19.8438 26.5 19.7969 26.6875 19.7031 26.875C19.3281 27.5312 18.6719 27.7188 18.2969 27.8125C17.5469 27.9531 16.7969 28 16 28C15.2031 28 14.4062 27.9531 13.6562 27.8125C13.2812 27.7188 12.625 27.5312 12.25 26.875C12.1562 26.6875 12.1094 26.5 12.0625 26.3125L11.5938 24.4844C11.5469 24.2031 11.0781 23.9688 10.8438 24.0156L9.0625 24.5781C8.875 24.625 8.64062 24.625 8.45312 24.6719C7.70312 24.6719 7.1875 24.2031 6.95312 23.9219C5.92188 22.75 5.125 21.3906 4.60938 19.8906C4.51562 19.5156 4.375 18.8594 4.75 18.2031C4.84375 18.0625 4.98438 17.875 5.125 17.7344L6.48438 16.4688C6.67188 16.2812 6.67188 15.7656 6.48438 15.5781L5.125 14.2656C4.98438 14.125 4.84375 13.9844 4.75 13.7969C4.375 13.1875 4.51562 12.5312 4.60938 12.1562C5.125 10.6562 5.92188 9.29688 6.95312 8.125C7.1875 7.84375 7.70312 7.375 8.45312 7.375C8.64062 7.375 8.875 7.42188 9.0625 7.46875L10.8438 7.98438C11.0781 8.07812 11.5469 7.79688 11.5938 7.5625L12.0625 5.73438C12.1094 5.54688 12.1562 5.35938 12.25 5.17188C12.625 4.51562 13.2812 4.32812 13.6562 4.23438C14.4062 4.09375 15.2031 4 16 4ZM14.2188 6.4375L13.7969 8.07812C13.4219 9.57812 11.6875 10.6094 10.1875 10.1875L8.54688 9.67188C7.79688 10.6094 7.1875 11.6406 6.76562 12.7656L8.03125 13.9375C9.15625 15.0156 9.15625 17.0312 8.03125 18.1094L6.76562 19.2812C7.1875 20.4062 7.79688 21.4375 8.54688 22.375L10.1875 21.8594C11.6875 21.4375 13.4219 22.4688 13.7969 23.9688L14.2188 25.6094C15.3438 25.8438 16.6094 25.8438 17.7812 25.6094L18.1562 23.9688C18.5312 22.4688 20.2656 21.4375 21.7656 21.8594L23.4062 22.375C24.1562 21.4375 24.7656 20.4062 25.1875 19.2812L23.9688 18.1094C22.8438 17.0312 22.8438 15.0156 23.9688 13.9375L25.1875 12.7656C24.7656 11.6406 24.1562 10.6094 23.4062 9.67188L21.7656 10.1875C20.3125 10.6094 18.5312 9.57812 18.1562 8.07812L17.7812 6.4375C16.6094 6.20312 15.3438 6.20312 14.2188 6.4375ZM13.75 16C13.75 16.8438 14.1719 17.5469 14.875 17.9688C15.5312 18.3906 16.4219 18.3906 17.125 17.9688C17.7812 17.5469 18.25 16.8438 18.25 16C18.25 15.2031 17.7812 14.5 17.125 14.0781C16.4219 13.6562 15.5312 13.6562 14.875 14.0781C14.1719 14.5 13.75 15.2031 13.75 16ZM16 20.5C14.3594 20.5 12.9062 19.6562 12.0625 18.25C11.2656 16.8906 11.2656 15.1562 12.0625 13.75C12.9062 12.3906 14.3594 11.5 16 11.5C17.5938 11.5 19.0469 12.3906 19.8906 13.75C20.6875 15.1562 20.6875 16.8906 19.8906 18.25C19.0469 19.6562 17.5938 20.5 16 20.5Z" fill="#EDEAE1"/>
</svg>
