<svg width="40" height="40" viewBox="0 0 40 40" fill="none" xmlns="http://www.w3.org/2000/svg">
<path d="M4 20C4 11.1634 11.1634 4 20 4C28.8366 4 36 11.1634 36 20C36 28.8366 28.8366 36 20 36C11.1634 36 4 28.8366 4 20Z" fill="#EDEAE1"/>
<path d="M20 20C18.5625 20 17.25 19.25 16.5312 18C15.8125 16.7812 15.8125 15.25 16.5312 14C17.25 12.7812 18.5625 12 20 12C21.4062 12 22.7188 12.7812 23.4375 14C24.1562 15.25 24.1562 16.7812 23.4375 18C22.7188 19.25 21.4062 20 20 20ZM18.5625 21.5H21.4062C24.5 21.5 27 24 27 27.0938C27 27.5938 26.5625 28 26.0625 28H13.9062C13.4062 28 13 27.5938 13 27.0938C13 24 15.4688 21.5 18.5625 21.5Z" fill="black"/>
</svg>
